<?xml version="1.0" encoding="iso-8859-1"?>
<!-- Uploaded to: SVG Repo, www.svgrepo.com, Generator: SVG Repo Mixer Tools -->
<svg version="1.1" id="Layer_1" xmlns="http://www.w3.org/2000/svg" xmlns:xlink="http://www.w3.org/1999/xlink" 
	 viewBox="0 0 512 512" xml:space="preserve">
<polygon style="fill:#D61322;" points="512,279.831 456.492,189.546 357.195,189.546 294.233,218.409 273.333,305.513 
	294.233,382.146 512,382.146 "/>
<polygon style="fill:#EC2533;" points="76.465,318.235 76.465,382.146 294.233,382.146 294.233,218.409 "/>
<path style="fill:#6F6F6F;" d="M172.832,359.724l-10.45,41.452l10.45,38.502c22.044,0,39.978-17.934,39.978-39.978
	C212.81,377.656,194.876,359.724,172.832,359.724z"/>
<path style="fill:#9D9D9D;" d="M132.855,399.702c0,22.044,17.934,39.978,39.978,39.978v-79.956
	C150.788,359.724,132.855,377.657,132.855,399.702z"/>
<path style="fill:#D4D4D4;" d="M172.832,380.622l-10.45,19.08l10.45,19.08c10.52,0,19.08-8.559,19.08-19.08
	S183.352,380.622,172.832,380.622z"/>
<path style="fill:#EDEDED;" d="M153.753,399.702c0,10.52,8.559,19.08,19.08,19.08v-38.16
	C162.311,380.622,153.753,389.182,153.753,399.702z"/>
<path style="fill:#6F6F6F;" d="M433.318,359.724l-10.45,41.452l10.45,38.502c22.044,0,39.978-17.934,39.978-39.978
	C473.296,377.656,455.361,359.724,433.318,359.724z"/>
<path style="fill:#9D9D9D;" d="M393.34,399.702c0,22.044,17.934,39.978,39.978,39.978v-79.956
	C411.274,359.724,393.34,377.657,393.34,399.702z"/>
<path style="fill:#D4D4D4;" d="M433.318,380.622l-10.45,19.08l10.45,19.08c10.52,0,19.08-8.559,19.08-19.08
	S443.838,380.622,433.318,380.622z"/>
<path style="fill:#EDEDED;" d="M414.238,399.702c0,10.52,8.559,19.08,19.08,19.08v-38.16
	C422.797,380.622,414.238,389.182,414.238,399.702z"/>
<polygon style="fill:#D4D4D4;" points="357.195,124.168 204.522,124.168 183.622,221.202 204.522,318.235 357.195,318.235 "/>
<polygon style="fill:#EDEDED;" points="146.202,124.168 51.848,218.523 51.848,318.235 204.522,318.235 204.522,124.168 "/>
<polygon style="fill:#FF9500;" points="438.228,222.215 423.696,222.215 402.796,256.339 423.696,287.598 478.425,287.598 "/>
<rect x="389.862" y="222.218" style="fill:#FFC222;" width="33.831" height="65.379"/>
<path style="fill:#FF9500;" d="M74.919,72.321L54.02,147.24l20.899,74.919c41.377,0,74.919-33.542,74.919-74.919
	S116.296,72.321,74.919,72.321z"/>
<path style="fill:#FFC222;" d="M0,147.24c0,41.377,33.542,74.919,74.919,74.919V72.321C33.542,72.321,0,105.863,0,147.24z"/>
<polygon style="fill:#FEDF77;" points="118.027,162.913 59.246,162.913 59.246,104.131 90.593,104.131 90.593,131.566 
	118.027,131.566 "/>
</svg>